<svg xmlns="http://www.w3.org/2000/svg" width="24" height="24" viewBox="0 0 24 24"><g transform="translate(-359.994 -463.994)"><g transform="translate(359.994 463.994)" fill="#fff" stroke="#b1b1b1" stroke-width="0.6"><circle cx="12" cy="12" r="12" stroke="none"/><circle cx="12" cy="12" r="11.7" fill="none"/></g><g transform="translate(368.999 468.5)"><path d="M37.087,12.379l-.194.793q-.873.344-1.392.524a3.672,3.672,0,0,1-1.207.18,2.41,2.41,0,0,1-1.643-.515,1.667,1.667,0,0,1-.586-1.309,4.63,4.63,0,0,1,.044-.63q.045-.322.142-.727l.727-2.573q.1-.37.164-.7a3.045,3.045,0,0,0,.066-.6.933.933,0,0,0-.2-.688,1.149,1.149,0,0,0-.778-.194,2.037,2.037,0,0,0-.578.088c-.2.058-.367.115-.509.167l.194-.793q.714-.291,1.367-.5A4.088,4.088,0,0,1,33.936,4.7a2.351,2.351,0,0,1,1.618.507,1.683,1.683,0,0,1,.568,1.317c0,.112-.012.309-.039.59a3.949,3.949,0,0,1-.146.776l-.724,2.563a6.8,6.8,0,0,0-.159.706,3.634,3.634,0,0,0-.071.6.863.863,0,0,0,.228.7,1.287,1.287,0,0,0,.792.185,2.287,2.287,0,0,0,.6-.093A3.349,3.349,0,0,0,37.087,12.379ZM37.27,1.621a1.5,1.5,0,0,1-.506,1.141,1.724,1.724,0,0,1-1.219.472,1.743,1.743,0,0,1-1.226-.472,1.5,1.5,0,0,1-.511-1.141A1.511,1.511,0,0,1,34.319.475a1.809,1.809,0,0,1,2.445,0A1.514,1.514,0,0,1,37.27,1.621Z" transform="translate(-31.139)" fill="#b1b1b1"/></g></g></svg>