<svg id="Component_159_1" data-name="Component 159 – 1" xmlns="http://www.w3.org/2000/svg" xmlns:xlink="http://www.w3.org/1999/xlink" width="237.741" height="81.798" viewBox="0 0 237.741 81.798">
  <defs>
    <clipPath id="clip-path">
      <path id="path3538" d="M862.458-2129.187H1100.2v34.646H862.458Z" transform="translate(-862.458 2129.187)" fill="#fff"/>
    </clipPath>
  </defs>
  <g id="Logo">
    <g id="g3532" transform="translate(0.002 0)">
      <g id="g3534" transform="translate(0)" clip-path="url(#clip-path)">
        <g id="g3540" transform="translate(208.752 9.12)">
          <path id="path3542" d="M-26.9-26.254a12.386,12.386,0,0,1-6.736,3.57,17.293,17.293,0,0,1-5.26.243,12.692,12.692,0,0,1-6.443-2.412,13.072,13.072,0,0,1-3.776-4.072A10.912,10.912,0,0,1-50.6-32.9a12.642,12.642,0,0,1,.3-5.844,12.181,12.181,0,0,1,9.656-8.732,17.285,17.285,0,0,1,7.9.181,11.059,11.059,0,0,1,4.93,2.591,9.59,9.59,0,0,1,2.159,2.713,7,7,0,0,1,.887,3.912h-8.575a3.994,3.994,0,0,0-1.663-2.656,3.613,3.613,0,0,0-4.028-.187,3.847,3.847,0,0,0-1.761,2.177,10.68,10.68,0,0,0-.113,6.606,4.957,4.957,0,0,0,1.5,2.383,3.678,3.678,0,0,0,3.1.942,2.917,2.917,0,0,0,1.807-.935,3.516,3.516,0,0,0,.941-1.853,10.85,10.85,0,0,0,.176-1.456h9.04A8.5,8.5,0,0,1-26.9-26.254" transform="translate(50.811 47.852)" fill="#fff"/>
        </g>
      </g>
    </g>
    <path id="path3544" d="M775.55-995.538h9.378v-6.355H775.55Z" transform="translate(-577.449 1002.053)" fill="#fff"/>
    <path id="path3546" d="M775.55-956.519h9.378v-24.056H775.55Z" transform="translate(-577.449 990.357)" fill="#fff"/>
    <g id="g3548" transform="translate(169.417 8.933)">
      <path id="path3550" d="M-10.42-4.118a15.6,15.6,0,0,1,3.9-2.425,10.569,10.569,0,0,1,7.407-.53,7.938,7.938,0,0,1,5.6,5.247,11.181,11.181,0,0,1,.6,3.7V17.4h-9.96V3.433a4.006,4.006,0,0,0-.2-1.309A2.682,2.682,0,0,0-4.7.406a3.839,3.839,0,0,0-4.742,1.5,3.806,3.806,0,0,0-.589,2.082V17.4h-9.646V-6.662h9.05l.209,2.543" transform="translate(19.678 7.506)" fill="#fff"/>
    </g>
    <g id="g3552" transform="translate(58.503 8.933)">
      <path id="path3554" d="M-10.42-4.118A15.636,15.636,0,0,1-6.525-6.544a10.574,10.574,0,0,1,7.409-.53,7.938,7.938,0,0,1,5.6,5.247,11.181,11.181,0,0,1,.6,3.7V17.4h-9.96V3.433a4.122,4.122,0,0,0-.2-1.309A2.692,2.692,0,0,0-4.7.406a3.835,3.835,0,0,0-4.739,1.5,3.8,3.8,0,0,0-.591,2.082V17.4h-9.645V-6.662h9.048l.21,2.543" transform="translate(19.678 7.506)" fill="#fff"/>
    </g>
    <g id="g3556" transform="translate(0.002 0)">
      <g id="g3558" transform="translate(0)" clip-path="url(#clip-path)">
        <g id="g3564" transform="translate(113.974 9.06)">
          <path id="path3566" d="M-14.51-19.37a13.178,13.178,0,0,1,2.009.482,1.568,1.568,0,0,1,1.1,1.176,1.711,1.711,0,0,1-.508,1.653,2.916,2.916,0,0,1-1.668.819,4.991,4.991,0,0,1-2.511-.228,3.427,3.427,0,0,1-1.066-.582,2.587,2.587,0,0,1-.876-1.264,3.76,3.76,0,0,1-.187-1.283H-27.4v.513a6.026,6.026,0,0,0,.438,2.307,7.357,7.357,0,0,0,2.045,2.919A9.867,9.867,0,0,0-20.744-10.6,23.169,23.169,0,0,0-10.8-10a14.145,14.145,0,0,0,4.46-1.394A9.055,9.055,0,0,0-4.614-12.5,7.144,7.144,0,0,0-2.205-20.5,5.832,5.832,0,0,0-4.1-23.247a10.713,10.713,0,0,0-4.154-2.171c-.352-.1-.652-.18-1.007-.273a46.312,46.312,0,0,0-5.677-1.158c-.541-.077-1-.161-1.53-.28a3.629,3.629,0,0,1-.68-.222,1.059,1.059,0,0,1-.561-1.423c.014-.029.027-.055.043-.082a2.172,2.172,0,0,1,1.345-1.025,5.04,5.04,0,0,1,3.043.07,2.192,2.192,0,0,1,1.564,2.192h8.849a8.077,8.077,0,0,0-.541-2.9,5.178,5.178,0,0,0-1.81-2.4,8.7,8.7,0,0,0-2.364-1.3,13.281,13.281,0,0,0-2.565-.684,27.216,27.216,0,0,0-6.3-.342,20.757,20.757,0,0,0-3.581.5,10.935,10.935,0,0,0-4.368,2.012,6.694,6.694,0,0,0-2.379,3.192,5.6,5.6,0,0,0-.352,1.76,6.474,6.474,0,0,0,.517,2.936,6.535,6.535,0,0,0,3.86,3.7,15.654,15.654,0,0,0,2.723.781c1.932.383,3.567.681,5.511,1" transform="translate(27.402 35.304)" fill="#fff"/>
        </g>
      </g>
    </g>
    <g id="g3568" transform="translate(0 0.158)">
      <path id="path3570" d="M-19.232-28.331h-6.436v-7.893h4.182c.794,0,1.467-.018,2.261-.06a3.486,3.486,0,0,0,2.67-1.379,3.022,3.022,0,0,0,.627-1.464,5.124,5.124,0,0,0,.03-1.34,3.481,3.481,0,0,0-3.534-3.074h-6.235v25.585H-36.322V-51.636h17.414c.692,0,1.278.012,1.969.049a11.894,11.894,0,0,1,10.383,6.72,11.1,11.1,0,0,1,1.1,6.4,11.106,11.106,0,0,1-9.034,9.641,21.871,21.871,0,0,1-4.746.493" transform="translate(36.322 51.636)" fill="#fff"/>
    </g>
    <g id="g3572" transform="translate(140.121 9.107)">
      <path id="path3574" d="M-18.939-.259a17.9,17.9,0,0,0-2.842-.213,17.922,17.922,0,0,0-2.843.213,13.243,13.243,0,0,0-7.313,3.478A11.265,11.265,0,0,0-35.7,10.727,13.225,13.225,0,0,0-35.21,15.9a11.884,11.884,0,0,0,4.6,6.525,12.131,12.131,0,0,0,4.953,2.206,17.87,17.87,0,0,0,3.879.4,17.9,17.9,0,0,0,3.88-.4,12.133,12.133,0,0,0,4.952-2.206l-5.388-5.633a3.84,3.84,0,0,1-4.993,1.817,3.568,3.568,0,0,1-1.9-1.817,8.136,8.136,0,0,1-.71-2.321,12.876,12.876,0,0,1,.109-4.835,6.061,6.061,0,0,1,.986-2.325A3.757,3.757,0,0,1-19.775,6.3a3.4,3.4,0,0,1,1.053,1.013,6.042,6.042,0,0,1,.987,2.325,12.965,12.965,0,0,1,.109,4.835,8.184,8.184,0,0,1-.711,2.321l5.388,5.633a11.87,11.87,0,0,0,4.6-6.525,13.251,13.251,0,0,0,.489-5.176,11.258,11.258,0,0,0-3.762-7.508A13.228,13.228,0,0,0-18.939-.259" transform="translate(35.768 0.471)" fill="#fff"/>
    </g>
    <g id="g3576" transform="translate(0.002 0)">
      <g id="g3578" transform="translate(0)" clip-path="url(#clip-path)">
        <g id="g3584" transform="translate(86.462 9.134)">
          <path id="path3586" d="M-29.806-27.739c-.14-1.982-.219-3.66-.26-5.649-.054-2.613-.087-4.818-.106-7.429a14.922,14.922,0,0,0-.541-3.964,6.323,6.323,0,0,0-3.255-4.05,10.88,10.88,0,0,0-3.083-1.116,27.254,27.254,0,0,0-10.453-.2,13.112,13.112,0,0,0-2.833.788A7.349,7.349,0,0,0-54.8-44.67a5.533,5.533,0,0,0-.242,2.482,1.263,1.263,0,0,0,.137.443l8.439.2a3.473,3.473,0,0,1,.23-1.437,2.514,2.514,0,0,1,1.59-1.532,5.129,5.129,0,0,1,3.369-.055,2.252,2.252,0,0,1,1.524,1.485,1.382,1.382,0,0,1-.212,1.29,1.983,1.983,0,0,1-.964.723,7.208,7.208,0,0,1-.724.225,34.373,34.373,0,0,1-3.372.7c-.949.15-1.747.291-2.687.475a30.982,30.982,0,0,0-3.583.9,7.56,7.56,0,0,0-2.9,1.624A5.8,5.8,0,0,0-56.2-33.5a7.148,7.148,0,0,0,.116,2.8A6.825,6.825,0,0,0-51.1-25.614a12.67,12.67,0,0,0,8.293-.4,7.9,7.9,0,0,0,3.286-2.3l-.6-4.135a3.613,3.613,0,0,1-1.667,1.364,6.489,6.489,0,0,1-2,.505,4.638,4.638,0,0,1-1.721-.143,2.473,2.473,0,0,1-1.19-.686,2.018,2.018,0,0,1-.544-1.01,1.569,1.569,0,0,1,.568-1.592,3.354,3.354,0,0,1,1.059-.594c.98-.346,1.817-.605,2.82-.878a22.37,22.37,0,0,0,3.362-1.189,8.774,8.774,0,0,1-.02,2.509,3.914,3.914,0,0,1-.664,1.714l.6,4.135c.185.587.355,1.079.564,1.654a2.318,2.318,0,0,0,.508.824h9.3a3.747,3.747,0,0,1-.648-1.9" transform="translate(56.289 50.557)" fill="#fff"/>
        </g>
        <g id="g3588" transform="translate(30.16 9.134)">
          <path id="path3590" d="M-29.806-27.739c-.14-1.982-.219-3.66-.26-5.649-.056-2.613-.087-4.818-.106-7.429a14.807,14.807,0,0,0-.541-3.964,6.318,6.318,0,0,0-3.255-4.05,10.88,10.88,0,0,0-3.083-1.116,27.261,27.261,0,0,0-10.455-.2,13.123,13.123,0,0,0-2.832.788A7.35,7.35,0,0,0-54.8-44.67a5.532,5.532,0,0,0-.24,2.482,1.231,1.231,0,0,0,.136.443l8.439.2a3.5,3.5,0,0,1,.23-1.437,2.514,2.514,0,0,1,1.59-1.532,5.125,5.125,0,0,1,3.368-.055,2.258,2.258,0,0,1,1.528,1.485,1.391,1.391,0,0,1-.215,1.29,2,2,0,0,1-.964.723,7.12,7.12,0,0,1-.725.225,34.345,34.345,0,0,1-3.371.7c-.947.15-1.747.291-2.688.475a31.2,31.2,0,0,0-3.583.9,7.586,7.586,0,0,0-2.9,1.624A5.8,5.8,0,0,0-56.2-33.5a7.094,7.094,0,0,0,.117,2.8,6.821,6.821,0,0,0,4.981,5.084,12.673,12.673,0,0,0,8.294-.4,7.909,7.909,0,0,0,3.288-2.3l-.6-4.135a3.613,3.613,0,0,1-1.67,1.364,6.481,6.481,0,0,1-2,.505,4.643,4.643,0,0,1-1.723-.143,2.462,2.462,0,0,1-1.189-.686,2.009,2.009,0,0,1-.545-1.01,1.572,1.572,0,0,1,.568-1.592,3.323,3.323,0,0,1,1.059-.594c.98-.346,1.819-.605,2.822-.878a22.426,22.426,0,0,0,3.362-1.189,8.827,8.827,0,0,1-.021,2.509,3.947,3.947,0,0,1-.662,1.714l.6,4.135c.183.587.353,1.079.564,1.654a2.294,2.294,0,0,0,.506.824h9.3a3.761,3.761,0,0,1-.648-1.9" transform="translate(56.291 50.557)" fill="#fff"/>
        </g>
      </g>
    </g>
  </g>
  <path id="Path_3372" data-name="Path 3372" d="M-12.112,2.4a7.164,7.164,0,0,1-2.64,2.048,8.153,8.153,0,0,1-3.408.7A9.458,9.458,0,0,1-22.672,4.08,19.453,19.453,0,0,1-27.28.288,12.6,12.6,0,0,1-32.7-1.664a10.989,10.989,0,0,1-3.712-4.048A11.44,11.44,0,0,1-37.744-11.2a11.313,11.313,0,0,1,1.584-5.936,11.163,11.163,0,0,1,4.384-4.144,13.075,13.075,0,0,1,6.288-1.5,12.982,12.982,0,0,1,6.272,1.5,11.307,11.307,0,0,1,4.384,4.144,11.227,11.227,0,0,1,1.6,5.936,11.154,11.154,0,0,1-2.192,6.848,11.337,11.337,0,0,1-5.808,4.1A5.7,5.7,0,0,0-19.68.944a3.627,3.627,0,0,0,1.616.368A4.869,4.869,0,0,0-14.416-.352ZM-32.5-11.2a7.478,7.478,0,0,0,.912,3.712,6.545,6.545,0,0,0,2.512,2.544,7.108,7.108,0,0,0,3.584.912A7.108,7.108,0,0,0-21.9-4.944a6.545,6.545,0,0,0,2.512-2.544A7.478,7.478,0,0,0-18.48-11.2a7.478,7.478,0,0,0-.912-3.712A6.545,6.545,0,0,0-21.9-17.456a7.108,7.108,0,0,0-3.584-.912,7.108,7.108,0,0,0-3.584.912,6.545,6.545,0,0,0-2.512,2.544A7.478,7.478,0,0,0-32.5-11.2ZM11.056,0l-.032-13.44L4.432-2.368H2.1l-6.56-10.784V0H-9.328V-22.4H-5.04L3.344-8.48,11.6-22.4h4.256L15.92,0ZM28.592.384a18.327,18.327,0,0,1-5.136-.72,12.046,12.046,0,0,1-3.984-1.872l1.76-3.9a11.943,11.943,0,0,0,3.424,1.7,12.861,12.861,0,0,0,3.968.64,6.339,6.339,0,0,0,3.264-.656,1.982,1.982,0,0,0,1.056-1.744A1.667,1.667,0,0,0,32.32-7.5a4.73,4.73,0,0,0-1.6-.848q-.976-.32-2.64-.7a36.494,36.494,0,0,1-4.192-1.216,6.811,6.811,0,0,1-2.8-1.952,5.271,5.271,0,0,1-1.168-3.584,6.235,6.235,0,0,1,1.056-3.536,7.1,7.1,0,0,1,3.184-2.512,12.993,12.993,0,0,1,5.2-.928,17.218,17.218,0,0,1,4.192.512A12.384,12.384,0,0,1,37.136-20.8l-1.6,3.936a12.49,12.49,0,0,0-6.208-1.76,5.821,5.821,0,0,0-3.216.7,2.149,2.149,0,0,0-1.04,1.856,1.815,1.815,0,0,0,1.2,1.712,18.841,18.841,0,0,0,3.664,1.1,36.495,36.495,0,0,1,4.192,1.216,6.942,6.942,0,0,1,2.8,1.92A5.148,5.148,0,0,1,38.1-6.56a6.117,6.117,0,0,1-1.072,3.5A7.2,7.2,0,0,1,33.808-.544,13.111,13.111,0,0,1,28.592.384Z" transform="translate(119 76.646)" fill="#fff"/>
</svg>
